<mxfile host="app.diagrams.net" modified="2023-11-08T14:17:41.066Z" agent="Mozilla/5.0 (Windows NT 10.0; Win64; x64) AppleWebKit/537.36 (KHTML, like Gecko) Chrome/118.0.0.0 Safari/537.36" etag="NuZuur0jYTmKTbITO6dj" version="22.0.8" type="device">
  <diagram name="Page-1" id="tfZTvgHLuKmPOsjOfpOw">
    <mxGraphModel dx="625" dy="324" grid="1" gridSize="10" guides="1" tooltips="1" connect="1" arrows="1" fold="1" page="1" pageScale="1" pageWidth="850" pageHeight="1100" math="0" shadow="0">
      <root>
        <mxCell id="0" />
        <mxCell id="1" parent="0" />
        <mxCell id="2" value="Service&#xa;Client" style="whiteSpace=wrap;strokeWidth=2;fillColor=#f5f5f5;strokeColor=#666666;fontColor=#333333;" parent="1" vertex="1">
          <mxGeometry x="140" y="120" width="58" height="33" as="geometry" />
        </mxCell>
        <mxCell id="3" value="Service&#xa;Server" style="whiteSpace=wrap;strokeWidth=2;fillColor=#dae8fc;strokeColor=#6c8ebf;" parent="1" vertex="1">
          <mxGeometry x="310" y="120" width="61" height="33" as="geometry" />
        </mxCell>
        <mxCell id="4" value="Request" style="curved=1;startArrow=none;endArrow=block;fillColor=#d5e8d4;strokeColor=#82b366;dashed=1;" parent="1" source="2" target="3" edge="1">
          <mxGeometry x="0.0991" relative="1" as="geometry">
            <Array as="points">
              <mxPoint x="260" y="170" />
            </Array>
            <mxPoint x="228" y="147.67213114754094" as="sourcePoint" />
            <mxPoint x="310" y="145.40372670807454" as="targetPoint" />
            <mxPoint as="offset" />
          </mxGeometry>
        </mxCell>
        <mxCell id="5" value="Response" style="curved=1;startArrow=none;endArrow=block;fillColor=#f8cecc;strokeColor=#b85450;dashed=1;" parent="1" target="2" edge="1">
          <mxGeometry x="-0.0978" relative="1" as="geometry">
            <Array as="points">
              <mxPoint x="260" y="100" />
            </Array>
            <mxPoint x="310" y="122.67080745341616" as="sourcePoint" />
            <mxPoint x="218" y="121.5915492957746" as="targetPoint" />
            <mxPoint as="offset" />
          </mxGeometry>
        </mxCell>
        <mxCell id="LUpUGuFm8tGVUdbX-Zh1-5" value="Node1" style="text;html=1;strokeColor=none;fillColor=none;align=center;verticalAlign=middle;whiteSpace=wrap;rounded=0;" vertex="1" parent="1">
          <mxGeometry x="149" y="100" width="40" height="20" as="geometry" />
        </mxCell>
        <mxCell id="LUpUGuFm8tGVUdbX-Zh1-6" value="Node2" style="text;html=1;strokeColor=none;fillColor=none;align=center;verticalAlign=middle;whiteSpace=wrap;rounded=0;" vertex="1" parent="1">
          <mxGeometry x="320" y="100" width="40" height="20" as="geometry" />
        </mxCell>
      </root>
    </mxGraphModel>
  </diagram>
</mxfile>
